<svg xmlns="http://www.w3.org/2000/svg" version="1.1" xmlns:xlink="http://www.w3.org/1999/xlink" xmlns:svgjs="http://svgjs.com/svgjs" width="569" height="146" overflow="visible"><g class="signage-logo" opacity="1"><defs id="SvgjsDefs1002"></defs><g id="SvgjsG1008" transform="scale(1.2311688311688311)" opacity="1"><g id="SvgjsG1009" class="EcZj1u_Ry" transform="translate(0, 0) scale(0.4419213638503884)" light-content="false" non-strokable="false" fill="#5b1ee1"><path d="M219.6 48.1c-22.9-22.9-53.4-35.5-85.8-35.5S71 25.2 48.1 48.1s-35.5 53.4-35.5 85.8 12.6 62.9 35.5 85.8 53.4 35.5 85.8 35.5 62.9-12.6 85.8-35.5 35.5-53.4 35.5-85.8-12.7-62.9-35.6-85.8z"></path><path d="M133.8 0C59.9 0 0 59.9 0 133.8s59.9 133.8 133.8 133.8 133.8-59.9 133.8-133.8S207.8 0 133.8 0zm0 260.1c-69.7 0-126.3-56.5-126.3-126.3S64.1 7.6 133.8 7.6s126.3 56.5 126.3 126.3-56.5 126.2-126.3 126.2z"></path></g><g id="SvgjsG1010" class="7-qs6-loNj" transform="translate(3.0932064532508647, 2.0117672388095365) scale(1.1351418309268715)" light-content="true" non-strokable="false" fill="#ffffff"><path d="M55.894 49.046v1.992c0 2.509 1.142 3.675 3.328 3.675h2.757c2.606 0 4.379 2.119 4.379 4.375v2.318c0 2.509-1.137 4.021-3.795 4.021h-3.196c-2.796 0-4.253-1.278-4.253-3.889V59.38c0-2.059-1.479-3.41-3.281-3.41h-4.759c-2.38 0-2.959 1.608-2.959 3.41v4.249c0 2.252 1.351 3.024 3.088 3.024h2.931c3.31 0 4.9 1.452 4.9 3.77v1.601c0 2.634 1.498 3.632 3.881 3.632h4.915c2.433 0 3.622-1.284 3.622-3.479v-1.796c0-3.023 1.676-3.988 4.893-3.988h3.384c1.866 0 2.725-1.158 2.725-2.702v-6.24c0-2.058-1.158-3.023-3.409-3.023h-4.054c-2.419 0-4.588-1.829-4.588-5.21v-1.992c0-2.509-1.142-3.675-3.329-3.675h-2.757c-2.606 0-4.379-2.118-4.379-4.374v-2.318c0-2.509 1.138-4.021 3.796-4.021h3.195c2.796 0 4.254 1.278 4.254 3.889v2.158c0 2.059 1.479 3.409 3.281 3.409h4.758c2.38 0 2.959-1.608 2.959-3.409v-4.249c0-2.251-1.351-3.023-3.088-3.023h-2.931c-3.31 0-4.9-1.452-4.9-3.77v-1.516c0-2.633-1.425-3.717-3.808-3.717h-4.988c-2.433 0-3.622 1.284-3.622 3.48v1.795c0 3.023-1.676 3.988-4.893 3.988h-3.385c-1.865 0-2.724 1.158-2.724 2.702v6.24c0 2.059 1.157 3.024 3.41 3.024h4.052c2.421-.003 4.59 1.826 4.59 5.207zm30.176 5.436a3.521 3.521 0 0 0 3.521-3.521v-2.688a3.521 3.521 0 0 0-3.521-3.522h-2.688a3.522 3.522 0 0 0-3.521 3.522v2.688a3.521 3.521 0 0 0 3.521 3.521h2.688z"></path><path d="M36.547 31.871h3.008c2.251 0 3.409-.965 3.409-3.023v-1.974c.113-3.194 2.224-4.658 4.578-4.658h3.008c2.253 0 3.41-.965 3.41-3.023v-4.151c0-1.544-.858-2.702-2.724-2.702h-5.695c-1.846 0-2.631.855-2.631 2.782v2.434c0 2.195-1.681 4.253-4.171 4.364h-4.194c-1.845 0-2.631.855-2.631 2.782v2.508c0 2.256-1.771 4.375-4.379 4.375h-2.757c-2.188 0-3.329 1.165-3.329 3.674v3.071c0 3.381-2.168 5.21-4.588 5.21h-4.054c-2.251 0-3.409.965-3.409 3.023v6.766c0 2.059 1.158 3.023 3.409 3.023h4.054c2.42 0 4.588 1.049 4.588 4.431v2.412c0 2.509 1.142 3.674 3.329 3.674h2.757c2.607 0 4.379 2.119 4.379 4.375v2.539c0 1.927.786 2.782 2.631 2.782h4.213l-.021.024c2.491.11 4.171 2.169 4.171 4.364v2.433c0 1.927.785 2.782 2.631 2.782h5.694c1.866 0 2.725-1.158 2.725-2.702v-4.151c0-2.059-1.158-3.024-3.409-3.024H47.54c-2.348 0-4.453-1.457-4.576-4.633v-2.053c0-2.059-1.158-3.023-3.409-3.023h-3.008c-2.421 0-4.59-1.828-4.59-5.209V59.74c0-2.509 1.143-3.674 3.33-3.674h2.756c2.607 0 4.38-2.119 4.38-4.375V48.2c0-2.256-1.772-4.375-4.38-4.375h-2.756c-2.188 0-3.33-1.166-3.33-3.674v-3.36c0-3.38 2.169-4.92 4.59-4.92z"></path></g><g id="SvgjsG1011" class="text" transform="translate(303.2847362436713, 52.5) scale(1)" light-content="false" fill="#333333"><path d="M-153.74 -52.5L-153.74 0L-145.25 0L-145.25 -15.31L-134.07 -25.41L-117.62 0L-107.6 0L-128.33 -31.38L-108.21 -52.5L-118.54 -52.5L-145.25 -24.64L-145.25 -52.5Z M-86.09 -52.5L-86.09 0L-77.6 0L-77.6 -21.04L-59.77 -21.04L-48.98 0L-39.72 0L-51.35 -22.27C-48.29 -23.44 -45.94 -25.3 -44.31 -27.86C-42.68 -30.41 -41.86 -33.49 -41.86 -37.11C-41.86 -41.86 -43.29 -45.61 -46.15 -48.36C-49 -51.12 -53.16 -52.5 -58.62 -52.5ZM-59.15 -28.24L-77.6 -28.24L-77.6 -45.23L-59.15 -45.23C-56.3 -45.23 -54.13 -44.51 -52.65 -43.08C-51.17 -41.66 -50.43 -39.64 -50.43 -37.04C-50.43 -34.28 -51.21 -32.13 -52.76 -30.57C-54.32 -29.02 -56.45 -28.24 -59.15 -28.24Z M-0.46 -52.5L-20.89 0L-12.17 0L-7.42 -12.78L16.76 -12.78L21.58 0L30.61 0L10.25 -52.5ZM14 -20.05L-4.74 -20.05L1.07 -35.58L4.44 -45.23L4.82 -45.23L8.26 -35.43Z M47.98 -4.21L47.98 0L91.37 0L91.37 -7.27L60.68 -7.27L90.68 -48.29L90.68 -52.5L49.97 -52.5L49.97 -45.23L77.98 -45.23Z M129.79 -21.58L129.79 0L138.28 0L138.28 -21.58L158.71 -52.5L149.23 -52.5L134.46 -29.23L134.07 -29.23L119.23 -52.5L109.28 -52.5Z"></path></g><g id="SvgjsG1012" class="text" transform="translate(306.7647319712104, 109.44023528053833) scale(1)" light-content="false" fill="#333333"><path d="M-146.63 0L-146.63 -25.02L-137.93 -25.02L-137.93 -26.78L-157.22 -26.78L-157.22 -25.02L-148.52 -25.02L-148.52 0Z M-128.99 0.37C-127.84 0.37 -126.79 0.28 -125.84 0.1C-124.89 -0.08 -123.85 -0.41 -122.73 -0.9L-122.73 -2.55C-124.05 -2.02 -125.14 -1.68 -126 -1.52C-126.86 -1.36 -127.86 -1.28 -128.99 -1.28C-131.32 -1.28 -133.12 -2 -134.37 -3.44C-135.62 -4.88 -136.26 -6.97 -136.28 -9.71L-121.94 -9.71L-121.94 -11.17C-121.94 -13.98 -122.62 -16.2 -123.97 -17.84C-125.33 -19.48 -127.18 -20.3 -129.52 -20.3C-132.17 -20.3 -134.28 -19.34 -135.84 -17.43C-137.41 -15.52 -138.19 -12.97 -138.19 -9.8C-138.19 -6.59 -137.38 -4.09 -135.76 -2.31C-134.14 -0.53 -131.89 0.37 -128.99 0.37ZM-129.52 -18.68C-127.75 -18.68 -126.37 -18.03 -125.36 -16.73C-124.36 -15.43 -123.86 -13.63 -123.86 -11.32L-136.17 -11.32C-135.98 -13.7 -135.3 -15.52 -134.14 -16.79C-132.98 -18.05 -131.44 -18.68 -129.52 -18.68Z M-108.49 0.37C-106.43 0.37 -104.76 0.05 -103.49 -0.57L-103.49 -2.25C-105.04 -1.61 -106.72 -1.28 -108.53 -1.28C-110.79 -1.28 -112.55 -2.04 -113.81 -3.56C-115.06 -5.08 -115.69 -7.19 -115.69 -9.87C-115.69 -12.71 -115.06 -14.88 -113.81 -16.39C-112.55 -17.89 -110.7 -18.65 -108.26 -18.65C-106.99 -18.65 -105.49 -18.36 -103.77 -17.79L-103.27 -19.4C-104.85 -20 -106.5 -20.3 -108.22 -20.3C-111.13 -20.3 -113.42 -19.38 -115.09 -17.54C-116.76 -15.7 -117.6 -13.13 -117.6 -9.84C-117.6 -6.62 -116.79 -4.12 -115.18 -2.33C-113.57 -0.53 -111.34 0.37 -108.49 0.37Z M-84.74 0L-82.94 0L-82.94 -13.02C-82.94 -17.87 -85.2 -20.3 -89.72 -20.3C-91.4 -20.3 -92.81 -20.03 -93.95 -19.49C-95.09 -18.95 -96.03 -18.09 -96.77 -16.89L-96.9 -16.89L-96.81 -19.43L-96.81 -28.5L-98.62 -28.5L-98.62 0L-96.81 0L-96.81 -10.99C-96.81 -13.69 -96.26 -15.64 -95.15 -16.84C-94.05 -18.05 -92.3 -18.65 -89.92 -18.65C-88.15 -18.65 -86.84 -18.19 -86 -17.28C-85.16 -16.37 -84.74 -14.92 -84.74 -12.91Z M-62.61 0L-60.81 0L-60.81 -13.02C-60.81 -17.87 -63.07 -20.3 -67.59 -20.3C-70.9 -20.3 -73.2 -19.26 -74.5 -17.18L-74.61 -17.18L-74.96 -19.91L-76.49 -19.91L-76.49 0L-74.68 0L-74.68 -10.99C-74.68 -13.69 -74.13 -15.64 -73.02 -16.84C-71.92 -18.05 -70.17 -18.65 -67.79 -18.65C-66.02 -18.65 -64.72 -18.19 -63.87 -17.28C-63.03 -16.37 -62.61 -14.92 -62.61 -12.91Z M-37.9 -9.98C-37.9 -13.18 -38.68 -15.7 -40.23 -17.54C-41.79 -19.38 -43.94 -20.3 -46.67 -20.3C-49.42 -20.3 -51.58 -19.39 -53.16 -17.58C-54.73 -15.76 -55.52 -13.23 -55.52 -9.98C-55.52 -7.92 -55.17 -6.1 -54.46 -4.52C-53.75 -2.95 -52.73 -1.74 -51.4 -0.9C-50.07 -0.05 -48.53 0.37 -46.78 0.37C-44.01 0.37 -41.84 -0.55 -40.26 -2.37C-38.69 -4.2 -37.9 -6.73 -37.9 -9.98ZM-53.62 -9.98C-53.62 -12.74 -53.02 -14.88 -51.83 -16.39C-50.64 -17.89 -48.94 -18.65 -46.75 -18.65C-44.55 -18.65 -42.84 -17.89 -41.63 -16.38C-40.41 -14.86 -39.8 -12.73 -39.8 -9.98C-39.8 -7.25 -40.41 -5.11 -41.61 -3.58C-42.81 -2.05 -44.51 -1.28 -46.71 -1.28C-48.91 -1.28 -50.61 -2.05 -51.81 -3.58C-53.01 -5.11 -53.62 -7.25 -53.62 -9.98Z M-30.57 0L-30.57 -28.5L-32.39 -28.5L-32.39 0Z M-7.44 -9.98C-7.44 -13.18 -8.22 -15.7 -9.77 -17.54C-11.33 -19.38 -13.48 -20.3 -16.21 -20.3C-18.96 -20.3 -21.12 -19.39 -22.7 -17.58C-24.27 -15.76 -25.06 -13.23 -25.06 -9.98C-25.06 -7.92 -24.7 -6.1 -24 -4.52C-23.29 -2.95 -22.27 -1.74 -20.94 -0.9C-19.61 -0.05 -18.07 0.37 -16.32 0.37C-13.55 0.37 -11.38 -0.55 -9.8 -2.37C-8.22 -4.2 -7.44 -6.73 -7.44 -9.98ZM-23.15 -9.98C-23.15 -12.74 -22.56 -14.88 -21.37 -16.39C-20.18 -17.89 -18.48 -18.65 -16.28 -18.65C-14.09 -18.65 -12.38 -17.89 -11.16 -16.38C-9.95 -14.86 -9.34 -12.73 -9.34 -9.98C-9.34 -7.25 -9.94 -5.11 -11.15 -3.58C-12.35 -2.05 -14.05 -1.28 -16.25 -1.28C-18.45 -1.28 -20.15 -2.05 -21.35 -3.58C-22.55 -5.11 -23.15 -7.25 -23.15 -9.98Z M13.61 -19.91L7.24 -19.91C6.51 -20.17 5.5 -20.3 4.19 -20.3C2.05 -20.3 0.34 -19.69 -0.93 -18.49C-2.19 -17.29 -2.82 -15.69 -2.82 -13.7C-2.82 -12.38 -2.5 -11.21 -1.85 -10.19C-1.2 -9.17 -0.3 -8.43 0.86 -7.95C-0.84 -6.94 -1.69 -5.76 -1.69 -4.43C-1.69 -3.82 -1.51 -3.28 -1.14 -2.81C-0.78 -2.34 -0.31 -1.98 0.29 -1.72C-1.16 -1.39 -2.31 -0.78 -3.16 0.13C-4.01 1.03 -4.43 2.17 -4.43 3.54C-4.43 5.26 -3.75 6.6 -2.37 7.57C-1 8.53 0.94 9.01 3.44 9.01C6.59 9.01 9.02 8.44 10.72 7.3C12.43 6.16 13.28 4.54 13.28 2.44C13.28 0.73 12.71 -0.56 11.56 -1.44C10.41 -2.31 8.76 -2.75 6.59 -2.75L3.11 -2.75C1.98 -2.75 1.17 -2.89 0.69 -3.19C0.2 -3.48 -0.04 -3.94 -0.04 -4.58C-0.04 -5.15 0.15 -5.7 0.53 -6.21C0.91 -6.72 1.46 -7.17 2.18 -7.55C2.55 -7.47 3.18 -7.44 4.08 -7.44C6.23 -7.44 7.95 -8.03 9.22 -9.22C10.5 -10.41 11.14 -11.97 11.14 -13.88C11.14 -15.52 10.59 -17.02 9.49 -18.39L13.61 -18.65ZM-2.51 3.37C-2.51 0.5 -0.68 -0.93 2.97 -0.93L6.23 -0.93C8.06 -0.93 9.38 -0.67 10.2 -0.13C11.02 0.41 11.43 1.28 11.43 2.47C11.43 5.81 8.82 7.47 3.59 7.47C-0.48 7.47 -2.51 6.11 -2.51 3.37ZM-0.99 -13.7C-0.99 -15.33 -0.53 -16.59 0.38 -17.5C1.29 -18.41 2.53 -18.87 4.12 -18.87C5.76 -18.87 7.03 -18.44 7.94 -17.59C8.85 -16.75 9.31 -15.47 9.31 -13.77C9.31 -12.18 8.86 -10.95 7.98 -10.11C7.09 -9.27 5.82 -8.85 4.16 -8.85C2.59 -8.85 1.35 -9.27 0.41 -10.12C-0.52 -10.97 -0.99 -12.16 -0.99 -13.7Z M14.36 -19.91L21.98 0C21.83 0.4 21.51 1.27 21 2.61C20.49 3.95 20.05 4.92 19.66 5.54C19.28 6.16 18.85 6.61 18.37 6.91C17.9 7.2 17.35 7.35 16.72 7.35C15.91 7.35 15.14 7.25 14.43 7.05L14.43 8.63C15.29 8.88 16.06 9.01 16.76 9.01C17.69 9.01 18.48 8.85 19.13 8.52C19.79 8.19 20.36 7.69 20.85 7.03C21.33 6.37 21.94 5.1 22.66 3.22L31.58 -19.91L29.71 -19.91L25.5 -8.85C24.34 -5.72 23.5 -3.37 22.99 -1.8L22.88 -1.8C22.54 -2.99 21.72 -5.31 20.44 -8.74L16.23 -19.91Z M52.09 0L52.09 -25.02L60.8 -25.02L60.8 -26.78L41.51 -26.78L41.51 -25.02L50.21 -25.02L50.21 0Z M78.2 0L79.99 0L79.99 -13.02C79.99 -17.87 77.73 -20.3 73.22 -20.3C71.53 -20.3 70.12 -20.03 68.98 -19.49C67.85 -18.95 66.91 -18.09 66.16 -16.89L66.03 -16.89L66.13 -19.43L66.13 -28.5L64.31 -28.5L64.31 0L66.13 0L66.13 -10.99C66.13 -13.69 66.68 -15.64 67.78 -16.84C68.89 -18.05 70.63 -18.65 73.01 -18.65C74.78 -18.65 76.09 -18.19 76.93 -17.28C77.78 -16.37 78.2 -14.92 78.2 -12.91Z M94.48 0.37C95.63 0.37 96.68 0.28 97.63 0.1C98.58 -0.08 99.62 -0.41 100.75 -0.9L100.75 -2.55C99.43 -2.02 98.34 -1.68 97.48 -1.52C96.62 -1.36 95.62 -1.28 94.48 -1.28C92.15 -1.28 90.36 -2 89.11 -3.44C87.85 -4.88 87.22 -6.97 87.19 -9.71L101.53 -9.71L101.53 -11.17C101.53 -13.98 100.86 -16.2 99.5 -17.84C98.15 -19.48 96.3 -20.3 93.95 -20.3C91.3 -20.3 89.19 -19.34 87.63 -17.43C86.07 -15.52 85.29 -12.97 85.29 -9.8C85.29 -6.59 86.1 -4.09 87.71 -2.31C89.33 -0.53 91.59 0.37 94.48 0.37ZM93.95 -18.68C95.72 -18.68 97.11 -18.03 98.11 -16.73C99.11 -15.43 99.61 -13.63 99.61 -11.32L87.3 -11.32C87.5 -13.7 88.17 -15.52 89.33 -16.79C90.49 -18.05 92.03 -18.68 93.95 -18.68Z M131.9 0L133.7 0L133.7 -13.02C133.7 -15.55 133.16 -17.4 132.07 -18.56C130.98 -19.72 129.35 -20.3 127.18 -20.3C125.79 -20.3 124.54 -19.99 123.45 -19.38C122.36 -18.77 121.49 -17.9 120.84 -16.76L120.77 -16.76C119.88 -19.12 117.86 -20.3 114.72 -20.3C113.5 -20.3 112.38 -20.02 111.37 -19.48C110.36 -18.94 109.58 -18.17 109.03 -17.18L108.92 -17.18L108.53 -19.91L107.03 -19.91L107.03 0L108.84 0L108.84 -10.99C108.84 -13.66 109.32 -15.61 110.27 -16.82C111.22 -18.04 112.74 -18.65 114.83 -18.65C117.91 -18.65 119.45 -16.97 119.45 -13.61L119.45 0L121.3 0L121.3 -11.67C121.3 -14.07 121.79 -15.84 122.76 -16.96C123.74 -18.09 125.25 -18.65 127.29 -18.65C128.85 -18.65 130.01 -18.2 130.77 -17.31C131.53 -16.42 131.9 -15 131.9 -13.06Z M148.19 0.37C149.34 0.37 150.39 0.28 151.34 0.1C152.29 -0.08 153.33 -0.41 154.45 -0.9L154.45 -2.55C153.13 -2.02 152.04 -1.68 151.18 -1.52C150.32 -1.36 149.32 -1.28 148.19 -1.28C145.86 -1.28 144.06 -2 142.81 -3.44C141.56 -4.88 140.92 -6.97 140.9 -9.71L155.24 -9.71L155.24 -11.17C155.24 -13.98 154.56 -16.2 153.21 -17.84C151.85 -19.48 150 -20.3 147.66 -20.3C145.01 -20.3 142.9 -19.34 141.34 -17.43C139.77 -15.52 138.99 -12.97 138.99 -9.8C138.99 -6.59 139.8 -4.09 141.42 -2.31C143.04 -0.53 145.29 0.37 148.19 0.37ZM147.66 -18.68C149.43 -18.68 150.81 -18.03 151.82 -16.73C152.82 -15.43 153.32 -13.63 153.32 -11.32L141.01 -11.32C141.2 -13.7 141.88 -15.52 143.04 -16.79C144.2 -18.05 145.74 -18.68 147.66 -18.68Z"></path></g></g></g></svg>