<svg version="1.2" xmlns="http://www.w3.org/2000/svg" viewBox="0 0 839 297" width="839" height="297"><style>.a{fill:#0144e4}.b{fill:#14192b}</style><path class="a" d="m203.6 233.2q-0.5 1-1 2.1-0.5 1-1 2.1-0.5 1.1-0.9 2.2l-9.2-3.6q0.5-1.3 1-2.5 0.6-1.2 1.1-2.5 0.6-1.2 1.2-2.4 0.7-1.1 1.3-2.3l8.7 4.8q-0.6 1-1.2 2.1zm6.2-10.5l-8.3-5.3q0.7-1.1 1.4-2.2 0.7-1 1.4-2.1 0.7-1.1 1.5-2.1 0.7-1.1 1.4-2.1l8.2 5.6c-1.9 2.7-3.8 5.5-5.6 8.2zm11.3-16.5l-8.1-5.6q0.7-1 1.4-2 0.7-1 1.4-2.1 0.7-1 1.3-2 0.7-1.1 1.4-2.1l8.4 5.3c-1.8 2.7-3.7 5.6-5.8 8.5zm10.9-17.6l-8.7-4.6q2.3-4.4 4.5-8.8l8.9 4.2q-2.2 4.7-4.7 9.2zm8.9-18.6l-9.1-3.8q2-4.6 3.7-9.2l9.3 3.5q-1.8 4.8-3.9 9.5zm6-60.5c0.3-3.1 0.4-6 0.4-8.7v-1h9.9v1c0 3-0.1 6.2-0.4 9.5zm7.8-30.8q0.3 1.3 0.5 2.6 0.3 1.3 0.5 2.6 0.3 1.4 0.5 2.7 0.2 1.3 0.3 2.6l-9.8 1.2q-0.2-1.2-0.3-2.4-0.2-1.2-0.4-2.3-0.2-1.2-0.5-2.4-0.2-1.1-0.5-2.3zm-7.1-20q0.6 1.2 1.1 2.4 0.6 1.2 1.1 2.4 0.5 1.3 1 2.5 0.5 1.2 0.9 2.5l-9.3 3.3q-0.4-1.1-0.8-2.2-0.4-1.1-0.9-2.2-0.5-1.1-1-2.2-0.5-1.1-1-2.2zm-11.3-17.9q0.8 1.1 1.6 2.1 0.8 1.1 1.6 2.2 0.8 1 1.5 2.1 0.7 1.1 1.4 2.3l-8.3 5.2q-0.6-1-1.3-1.9-0.7-1-1.4-2-0.7-1-1.4-1.9-0.7-1-1.4-1.9zm-14.9-15.1q1.1 0.8 2.1 1.7 0.9 0.9 1.9 1.8 1 0.9 2 1.8 0.9 0.9 1.8 1.8l-7 7q-0.9-0.9-1.7-1.7-0.9-0.8-1.8-1.7-0.8-0.8-1.7-1.5-1-0.8-1.9-1.6zm-14 1.9c-2.6-1.8-5.4-3.5-8.2-5l4.7-8.7q1.2 0.6 2.3 1.3 1.2 0.7 2.3 1.3 1.1 0.7 2.2 1.4 1.2 0.7 2.3 1.5zm-16.9-9.1q-1.1-0.5-2.2-1-1.2-0.4-2.3-0.8-1.1-0.4-2.3-0.8-1.1-0.4-2.2-0.8l3-9.4q1.2 0.4 2.5 0.8 1.2 0.4 2.4 0.9 1.3 0.5 2.5 1 1.2 0.4 2.4 1zm-26.5-17.3q1.3 0.1 2.6 0.3 1.3 0.2 2.6 0.5 1.3 0.2 2.6 0.4 1.3 0.3 2.6 0.6l-2.2 9.6c-3.1-0.7-6.3-1.2-9.5-1.6zm33.2 264.4c-0.5 1.2-1.2 2.3-2.1 3.3-0.9 0.9-1.9 1.6-3.1 2.2-1.2 0.5-2.5 0.8-3.8 0.8h-79.6c-1.3 0-2.6-0.3-3.8-0.8-1.1-0.6-2.2-1.3-3.1-2.2-0.9-1-1.6-2.1-2.1-3.3-0.5-1.2-0.7-2.5-0.7-3.8v-0.3c0-1.3 0.3-2.5 0.8-3.7 0.4-1.2 1.2-2.2 2.1-3.1 0.9-0.9 1.9-1.5 3.1-2 1.2-0.4 2.4-0.6 3.7-0.6h79.6c1.3 0 2.5 0.2 3.7 0.6 1.2 0.5 2.3 1.1 3.2 2 0.9 0.9 1.6 1.9 2.1 3.1 0.4 1.2 0.7 2.4 0.7 3.7v0.3c0 1.3-0.2 2.6-0.7 3.8zm-13 11.4c1.2 0 2.4 0.3 3.5 0.8 1.1 0.5 2.1 1.2 2.9 2 0.8 0.9 1.4 1.9 1.8 3.1 0.4 1.1 0.6 2.3 0.5 3.5v0.3c0.1 1.3 0 2.5-0.4 3.7-0.4 1.1-1 2.2-1.8 3.2-0.9 0.9-1.8 1.7-2.9 2.2-1.1 0.6-2.3 0.9-3.6 1h-71.6c-1.3-0.1-2.4-0.4-3.6-1-1.1-0.5-2-1.3-2.8-2.2-0.8-1-1.5-2.1-1.8-3.2-0.4-1.2-0.6-2.4-0.5-3.7v-0.3c-0.1-1.2 0.1-2.4 0.5-3.5 0.4-1.2 1-2.2 1.8-3.1 0.8-0.8 1.8-1.5 2.9-2 1.1-0.5 2.3-0.8 3.5-0.8zm-72.4-173.4c2-4.8 4.9-9.2 8.6-12.9 3.6-3.6 8-6.5 12.8-8.5 4.8-2 10-3.1 15.1-3.1v79.2c-5.1 0-10.3-1-15.1-3-4.8-2-9.2-4.9-12.8-8.6-3.7-3.7-6.6-8-8.6-12.8-2-4.8-3-10-3-15.2 0-5.2 1-10.3 3-15.1z"/><path fill-rule="evenodd" class="a" d="m71.6 190.9c-16.8-29.8-27.1-64.7-27.1-90.1 0-54.3 46.5-95.7 103.9-95.7v44.4q-1.1 0-2.1 0-1.1 0-2.1 0.1-1.1 0.1-2.1 0.2-1.1 0.1-2.1 0.2l-2.2 10.4q-1.2 0.2-2.4 0.4-1.2 0.3-2.4 0.6-1.1 0.4-2.3 0.7-1.2 0.4-2.3 0.8l-7.1-7.9q-1.9 0.8-3.8 1.8-1.9 0.9-3.7 2-1.9 1-3.6 2.2-1.8 1.2-3.4 2.5l3.2 10q-0.9 0.7-1.8 1.6-0.9 0.8-1.8 1.7-0.8 0.8-1.6 1.7-0.9 0.9-1.7 1.9l-9.9-3.3q-1.3 1.7-2.5 3.4-1.2 1.8-2.2 3.6-1.1 1.8-2.1 3.7-0.9 1.9-1.7 3.8l7.9 7.1q-0.4 1.1-0.8 2.3-0.4 1.2-0.7 2.4-0.3 1.1-0.6 2.3-0.2 1.2-0.5 2.4l-10.9 2.2v16.9l10.9 2.1q0.3 1.2 0.5 2.4 0.3 1.2 0.6 2.4 0.3 1.2 0.7 2.3 0.4 1.2 0.8 2.3l-7.9 7.1q0.8 2 1.7 3.8 1 1.9 2.1 3.8 1 1.8 2.2 3.5 1.2 1.8 2.5 3.5l9.9-3.3q0.8 0.9 1.7 1.8 0.8 0.9 1.6 1.8 0.9 0.8 1.8 1.7 0.9 0.8 1.8 1.6l-3.2 10q1.6 1.2 3.4 2.4 1.7 1.2 3.6 2.3 1.8 1 3.7 2 1.9 0.9 3.8 1.8l7.1-8q1.1 0.5 2.3 0.8 1.2 0.4 2.3 0.7 1.2 0.3 2.4 0.6 1.2 0.3 2.4 0.5l2.2 10.3q1 0.1 2.1 0.2 1 0.1 2.1 0.2 1 0.1 2.1 0.1 1 0.1 2.1 0.1v59.5h-40.8q-0.5 0-1 0.1-0.5 0-1 0.1-0.6 0-1.1 0.1-0.5 0.1-1 0.3c-2.7-19.4-22.4-40.5-31.9-57.2zm-61.7 76.2h9.9v9.9h-9.9zm0 19.8h9.9v9.9h-9.9zm9.9-9.9h9.9v9.9h-9.9zm-19.8 0h9.9v9.9h-9.9zm282-277h9.9v9.9h-9.9zm0 19.8h9.9v9.8h-9.9zm9.9-9.8h9.8v9.8h-9.8zm-19.8 0h9.9v9.9h-9.9zm-105.8 26.4c4.9-2.5 10.8-2.1 15.3 1.1 4.6 3.2 6.9 8.6 6.2 14.1-0.8 5.5-4.5 10.1-9.7 11.9v25.7h14.8v9.9h14.9v-15.8c-6.9-2.4-10.9-9.3-9.7-16.5 1.2-7.1 7.4-12.3 14.6-12.3 7.2 0 13.4 5.2 14.6 12.3 1.3 7.2-2.8 14.1-9.6 16.5v20.7q0 1-0.4 1.9-0.4 0.9-1.1 1.6-0.7 0.7-1.6 1.1-0.9 0.4-1.9 0.4h-19.8v19.8h30.6c2.4-6.9 9.4-10.9 16.5-9.7 7.1 1.2 12.3 7.4 12.3 14.6 0 7.2-5.2 13.4-12.3 14.6-7.1 1.3-14.1-2.8-16.5-9.6h-30.6v9.8h-19.8v14.9h14.9q1 0 1.9 0.4 0.9 0.3 1.6 1 0.7 0.7 1 1.6 0.4 0.9 0.4 1.9v10.8c6.8 2.4 10.9 9.4 9.7 16.5-1.2 7.2-7.4 12.4-14.6 12.4-7.3 0-13.4-5.2-14.7-12.4-1.2-7.1 2.9-14.1 9.7-16.5v-5.8h-14.8q-1 0-1.9-0.4-0.9-0.4-1.6-1.1-0.7-0.7-1.1-1.6-0.4-0.9-0.4-1.9v-19.8h-9.9v-59.3h14.9v-25.7q-2.2-0.7-4-2.1-1.8-1.4-3.2-3.2-1.3-1.9-2-4.1-0.7-2.2-0.7-4.5c0-5.5 3.1-10.6 8-13.2z"/><path class="b" d="m335.2 208h-31v-149h31v74.6l-8.6-3 59.6-71.6h38.8l-59 71.2 1.8-22 58.4 99.8h-36.2l-36.4-63-18.4 22.2zm134.2 0h-30v-109.2h28v26.2l-2-3.8q3.6-13.8 11.8-18.6 8.4-5 19.8-5h6.4v26h-9.4q-11 0-17.8 6.8-6.8 6.6-6.8 18.8zm81 2.4q-11.8 0-20.4-3.8-8.6-3.8-13.2-10.8-4.6-7.2-4.6-17 0-9.2 4.2-16.2 4.2-7.2 12.8-12 8.8-4.8 21.8-6.8l33.4-5.4v22l-28 5q-6.4 1.2-9.8 4.2-3.4 2.8-3.4 8.2 0 5 3.8 7.8 3.8 2.8 9.4 2.8 7.4 0 13-3.2 5.6-3.2 8.6-8.6 3.2-5.6 3.2-12.2v-28.4q0-6.2-5-10.4-4.8-4.2-13.2-4.2-8 0-14.2 4.4-6 4.4-8.8 11.6l-24-11.4q3.2-9.2 10.2-15.8 7-6.6 16.8-10.2 9.8-3.6 21.4-3.6 13.8 0 24.4 5 10.6 5 16.4 14 6 8.8 6 20.6v72h-28v-17.6l6.8-1.2q-4.8 7.2-10.6 12-5.8 4.6-13 7-7.2 2.2-16 2.2zm168-2.4h-94v-24l62.8-69.2 4.4 10h-64.6v-26h91.2v24l-61.2 69.4-4.4-10.2h65.8zm30.2 44.4q-4.8 0-9.4-0.8-4.4-0.8-7.8-2.6v-24.6q2.8 0.8 6.6 1.4 3.8 0.6 7 0.6 8.8 0 12.6-4.2 3.8-4.2 6.2-9.6l7.4-17-0.4 25-48-121.8h32.2l31.8 86.6h-12l31.8-86.6h32.2l-46.8 119.4q-4.4 11.4-10.8 19-6.4 7.6-14.6 11.4-8 3.8-18 3.8z"/></svg>